<?xml version="1.0" encoding="iso-8859-1"?>
<svg id="svg" preserveAspectRatio="none" width="1707px" height="960px" viewBox="0 0 1707 960">
        <g id="world" transform="matrix(0.8176470588235294, 0, 0, 0.8176470588235294, 32.35294117647059, 32.35294117647059)">
          <rect id="background-overlay" x="0" y="0" width="1400" height="980" style="fill: url(#ee-checkboard-pattern);"></rect>

          <pattern id="ee-checkboard-pattern" viewBox="0 0 10 10" width="10" height="10" patternUnits="userSpaceOnUse" patternTransform="scale(1.2230216110538095)">
            <rect x="0" y="0" width="5" height="5" fill="#d6d6d6"></rect>
            <rect x="5" y="0" width="5" height="5" fill="white"></rect>
            <rect x="0" y="5" width="5" height="5" fill="white"></rect>
            <rect x="5" y="5" width="5" height="5" fill="#d6d6d6"></rect>
          </pattern>

          <g id="artboards">
            <rect id="matte" x="-1000000" y="-1000000" width="2000000" height="2000000" style="fill: rgba(0,0,0,0);"></rect>
            <g id="master-artboard" viewBox="0 0 1400 980" version="1.1" xmlns="http://www.w3.org/2000/svg" x="0px" y="0px" style="enable-background:new 0 0 1400 980;">

<path d="M 0 0 H 1400.300049 V 980.5 H 0 V 0 Z" class="st0" style="fill: rgb(47, 80, 96);" transform="matrix(1, 0, 0, 1, 0, 0)"></path><path d="M 451.099991 197.5 A 133.199997 133.199997 0 0 1 317.899994 330.699997 A 133.199997 133.199997 0 0 1 184.699997 197.5 A 133.199997 133.199997 0 0 1 317.899994 64.300003 A 133.199997 133.199997 0 0 1 451.099991 197.5 Z" class="st1" style="fill: rgb(35, 64, 78);" transform="matrix(1, 0, 0, 1, 0, 0)"></path><path class="st1" d="M830.5,193c0-0.7,0-1.3-0.1-2c0-0.5-0.1-1.1-0.1-1.6c0-0.5-0.1-1-0.1-1.5c0-0.6-0.1-1.3-0.2-1.9
			c0-0.4-0.1-0.8-0.1-1.2c-0.1-0.7-0.1-1.4-0.2-2.2c0-0.3-0.1-0.5-0.1-0.8c-0.1-0.8-0.2-1.7-0.3-2.5c0-0.1,0-0.2,0-0.4
			c-9-64.8-64.6-114.7-131.9-114.7c-69.5,0-126.6,53.2-132.7,121.2c0,0.3-0.1,0.6-0.1,0.9c0,0.6-0.1,1.2-0.1,1.8
			c0,0.5-0.1,1-0.1,1.5c0,0.5-0.1,1-0.1,1.5c0,0.6-0.1,1.3-0.1,1.9c0,0.4,0,0.8,0,1.2c0,1.1,0,2.1,0,3.2c0,1.3,0,2.6,0.1,3.9
			c0,0.3,0,0.6,0,1c0,1,0.1,2,0.1,3c0,0.3,0,0.6,0.1,0.8c0.1,1.1,0.2,2.3,0.3,3.4c0,0.1,0,0.2,0,0.3
			c6.2,67.8,63.2,120.8,132.6,120.8c69.3,0,126.2-52.9,132.6-120.6c0-0.2,0-0.4,0-0.5c0.1-1.1,0.2-2.1,0.3-3.2c0-0.3,0-0.7,0.1-1
			c0.1-1,0.1-2,0.1-2.9c0-0.3,0-0.7,0-1c0-1.3,0.1-2.6,0.1-3.9c0-1.1,0-2.2,0-3.3C830.6,193.8,830.6,193.4,830.5,193z" style="fill: rgb(35, 64, 78);" transform="matrix(1, 0, 0, 1, 0, 0)"></path><path class="st1" d="M1081.8,330.7c25,0,48.4-6.9,68.3-18.9l0,0c0.8-0.4,1.5-0.9,2.2-1.4c0.1-0.1,0.3-0.2,0.4-0.3
			c0.7-0.4,1.3-0.8,1.9-1.2c0.2-0.2,0.5-0.3,0.7-0.5c0.6-0.4,1.2-0.8,1.7-1.2c0.3-0.2,0.6-0.4,0.9-0.6c0.5-0.4,1-0.7,1.6-1.1
			c0.3-0.2,0.7-0.5,1-0.7c0.5-0.4,1-0.7,1.4-1.1c0.4-0.3,0.7-0.6,1.1-0.8c0.4-0.3,0.9-0.7,1.3-1c0.4-0.3,0.8-0.6,1.2-1
			c0.4-0.3,0.8-0.6,1.2-1c0.4-0.4,0.9-0.8,1.3-1.1c0.3-0.3,0.7-0.6,1-0.8c0.6-0.6,1.3-1.1,1.9-1.7c27-24.4,44-59.7,44-98.9
			c0-73.6-59.6-133.2-133.2-133.2c-73.6,0-133.2,59.6-133.2,133.2S1008.2,330.7,1081.8,330.7z" style="fill: rgb(35, 64, 78);" transform="matrix(1, 0, 0, 1, 0, 0)"></path><path d="M 451.099991 493.100006 A 133.199997 133.199997 0 0 1 317.899994 626.300003 A 133.199997 133.199997 0 0 1 184.699997 493.100006 A 133.199997 133.199997 0 0 1 317.899994 359.900009 A 133.199997 133.199997 0 0 1 451.099991 493.100006 Z" class="st1" style="fill: rgb(35, 64, 78);" transform="matrix(1, 0, 0, 1, 0, 0)"></path><path class="st1" d="M326.1,921.7c0.4,0,0.8-0.1,1.3-0.1c1.1-0.1,2.2-0.2,3.3-0.3c0.2,0,0.4,0,0.6-0.1c1.3-0.1,2.6-0.3,4-0.5
			c0.3,0,0.6-0.1,1-0.1c1-0.1,2-0.3,3-0.5c0.4-0.1,0.8-0.1,1.1-0.2c1-0.2,2.1-0.4,3.1-0.6c0.3,0,0.5-0.1,0.8-0.1
			c1.3-0.3,2.6-0.5,3.9-0.9c0.2,0,0.3-0.1,0.5-0.1c1.1-0.3,2.3-0.6,3.4-0.9c0.3-0.1,0.6-0.2,0.9-0.2c1.1-0.3,2.1-0.6,3.1-0.9
			c0.2-0.1,0.5-0.1,0.7-0.2c2.6-0.8,5.1-1.7,7.6-2.6c0.2-0.1,0.4-0.1,0.5-0.2c1.1-0.4,2.2-0.9,3.3-1.3c0.2-0.1,0.3-0.1,0.5-0.2
			c2.5-1.1,5-2.2,7.5-3.4c0,0,0,0,0,0c1.2-0.6,2.4-1.2,3.6-1.9c0.1,0,0.1-0.1,0.2-0.1c42.2-22.4,70.9-66.7,70.9-117.8
			c0-1.3,0-2.5-0.1-3.7c0-0.4,0-0.7,0-1.1c0-0.9-0.1-1.8-0.1-2.7c0-0.4-0.1-0.8-0.1-1.2c-0.1-0.9-0.1-1.7-0.2-2.6
			c0-0.4-0.1-0.7-0.1-1.1c-0.1-1-0.2-1.9-0.3-2.9c0-0.3-0.1-0.5-0.1-0.8c-7.9-66-64.1-117.2-132.2-117.2
			c-73.6,0-133.2,59.6-133.2,133.2c0,58.2,37.3,107.7,89.3,125.8c0.2,0.1,0.5,0.2,0.7,0.2c0.6,0.2,1.3,0.4,1.9,0.6
			c0.3,0.1,0.7,0.2,1,0.3c0.6,0.2,1.2,0.4,1.8,0.6c0.4,0.1,0.7,0.2,1.1,0.3c0.6,0.2,1.2,0.3,1.8,0.5c0.4,0.1,0.8,0.2,1.2,0.3
			c0.6,0.2,1.2,0.3,1.8,0.5c0.4,0.1,0.8,0.2,1.2,0.3c0.6,0.1,1.2,0.3,1.8,0.4c0.4,0.1,0.8,0.2,1.3,0.3c0.6,0.1,1.2,0.3,1.8,0.4
			c0.5,0.1,0.9,0.2,1.4,0.3c1,0.2,2,0.4,3,0.5c0.6,0.1,1.1,0.2,1.7,0.3c0.5,0.1,1,0.1,1.5,0.2c0.6,0.1,1.1,0.2,1.7,0.2
			c0.5,0.1,1,0.1,1.5,0.2c0.6,0.1,1.2,0.1,1.7,0.2c0.5,0.1,0.9,0.1,1.4,0.1c0.6,0.1,1.2,0.1,1.8,0.2c0.5,0,0.9,0.1,1.4,0.1
			c0.6,0,1.3,0.1,1.9,0.1c0.4,0,0.9,0.1,1.3,0.1c0.7,0,1.4,0.1,2.1,0.1c0.4,0,0.7,0,1.1,0c1.1,0,2.2,0,3.2,0c1.4,0,2.7,0,4.1-0.1
			c0.4,0,0.8,0,1.2,0C324.1,921.8,325.1,921.7,326.1,921.7z" style="fill: rgb(35, 64, 78);" transform="matrix(1, 0, 0, 1, 0, 0)"></path><path class="st1" d="M828.2,814c0.1-0.3,0.1-0.6,0.2-0.9c0.1-0.7,0.2-1.4,0.4-2c0.1-0.4,0.1-0.8,0.2-1.2c0.1-0.6,0.2-1.2,0.3-1.9
			c0.1-0.5,0.1-0.9,0.2-1.4c0.1-0.6,0.2-1.2,0.2-1.7c0.1-0.5,0.1-1,0.2-1.5c0.1-0.5,0.1-1.1,0.2-1.6c0.1-0.6,0.1-1.1,0.1-1.7
			c0-0.5,0.1-1,0.1-1.5c0-0.6,0.1-1.2,0.1-1.8c0-0.5,0.1-0.9,0.1-1.4c0-0.7,0.1-1.4,0.1-2.1c0-0.4,0-0.8,0-1.1c0-1.1,0-2.2,0-3.3
			c0-1.5,0-3.1-0.1-4.6c0-0.4,0-0.8,0-1.1c-0.1-1.5-0.1-3-0.3-4.5c0,0,0,0,0,0c-0.1-1.5-0.3-3-0.4-4.5c0-0.4-0.1-0.7-0.1-1.1
			c-0.4-3-0.8-5.9-1.3-8.8c-0.1-0.4-0.1-0.7-0.2-1.1c-0.6-2.9-1.2-5.8-2-8.6c-0.1-0.3-0.2-0.7-0.3-1c-0.8-2.8-1.7-5.6-2.6-8.4
			c-0.1-0.3-0.2-0.6-0.3-1c-1-2.8-2.1-5.5-3.2-8.1c-0.1-0.3-0.3-0.6-0.4-0.9c-1.2-2.7-2.4-5.3-3.8-7.8c-0.2-0.3-0.3-0.6-0.5-0.9
			c-1.4-2.6-2.8-5.1-4.3-7.5c-0.2-0.3-0.3-0.5-0.5-0.8c-22-35-59.9-59-103.6-62c-0.2,0-0.4,0-0.7,0c-1.1-0.1-2.3-0.1-3.4-0.2
			c-0.3,0-0.7,0-1,0c-1.4,0-2.8-0.1-4.1-0.1c-1.5,0-3,0-4.5,0.1c-0.3,0-0.5,0-0.8,0c-71.1,2.8-127.9,61.3-127.9,133.1
			c0,73.6,59.6,133.2,133.2,133.2c1.1,0,2.3,0,3.4,0c0.6,0,1.2,0,1.8-0.1c0.5,0,1,0,1.5-0.1c0.8,0,1.7-0.1,2.5-0.2
			c0.2,0,0.5,0,0.7,0c1-0.1,2.1-0.2,3.1-0.3c0.1,0,0.1,0,0.2,0c58-5.7,105-48.6,117-104.5c0-0.2,0.1-0.3,0.1-0.5
			C827.9,815.5,828.1,814.7,828.2,814z" style="fill: rgb(35, 64, 78);" transform="matrix(1, 0, 0, 1, 0, 0)"></path><path d="M 1215.000046 788.700012 A 133.199997 133.199997 0 0 1 1081.800049 921.900009 A 133.199997 133.199997 0 0 1 948.600052 788.700012 A 133.199997 133.199997 0 0 1 1081.800049 655.500015 A 133.199997 133.199997 0 0 1 1215.000046 788.700012 Z" class="st1" style="fill: rgb(35, 64, 78);" transform="matrix(1, 0, 0, 1, 0, 0)"></path><path class="st1" d="M830.5,487.8c-0.1-1.3-0.1-2.6-0.2-3.9c0-0.1,0-0.2,0-0.3c-4.9-69.1-62.5-123.7-132.9-123.7
			c-70.5,0-128.2,54.7-132.9,124c0,0.3,0,0.6-0.1,0.9c-0.1,1.1-0.1,2.1-0.2,3.2c0,0.4,0,0.7,0,1.1c0,1.3-0.1,2.7-0.1,4.1
			c0,1.7,0,3.3,0.1,4.9c0,0.3,0,0.5,0,0.8c1.9,45.4,26.5,84.8,62.7,107.4c0,0,0,0,0.1,0c3.5,2.2,7.2,4.2,10.9,6.1
			c0.1,0.1,0.3,0.1,0.4,0.2c1.2,0.6,2.4,1.2,3.7,1.7c0,0,0,0,0,0c1.3,0.6,2.6,1.2,3.9,1.7c0,0,0,0,0,0c1.2,0.5,2.4,1,3.6,1.5
			c0.2,0.1,0.5,0.2,0.7,0.3c1.1,0.4,2.2,0.8,3.3,1.2c0.2,0.1,0.3,0.1,0.5,0.2c1.3,0.4,2.6,0.9,3.9,1.3c0.1,0,0.2,0,0.2,0.1
			c1.2,0.4,2.4,0.7,3.6,1c0.3,0.1,0.6,0.2,0.9,0.3c1,0.3,2.1,0.5,3.1,0.8c0.3,0.1,0.5,0.1,0.8,0.2c1.3,0.3,2.6,0.6,4,0.9
			c0.1,0,0.2,0,0.3,0.1c1.2,0.2,2.4,0.5,3.6,0.7c0.4,0.1,0.7,0.1,1.1,0.2c1,0.2,2,0.3,3,0.5c0.4,0,0.7,0.1,1.1,0.1
			c1.3,0.2,2.7,0.3,4,0.5c0.1,0,0.2,0,0.3,0c1.2,0.1,2.5,0.2,3.7,0.3c0.4,0,0.8,0.1,1.2,0.1c1,0.1,2,0.1,3,0.1c0.4,0,0.8,0,1.2,0
			c1.4,0,2.7,0.1,4.1,0.1c1.1,0,2.2,0,3.3,0c0.4,0,0.8,0,1.1,0c0.7,0,1.4,0,2.2-0.1c0.5,0,0.9-0.1,1.4-0.1c0.6,0,1.3-0.1,1.9-0.1
			c0.5,0,1-0.1,1.5-0.1c0.6,0,1.1-0.1,1.7-0.2c0.5-0.1,1.1-0.1,1.6-0.2c0.5-0.1,1.1-0.1,1.6-0.2c0.6-0.1,1.1-0.1,1.7-0.2
			c0.5-0.1,1-0.1,1.5-0.2c0.6-0.1,1.2-0.2,1.8-0.3c0.4-0.1,0.9-0.1,1.3-0.2c0.6-0.1,1.3-0.2,1.9-0.3c0.4-0.1,0.8-0.1,1.1-0.2
			c0.7-0.1,1.4-0.3,2-0.4c0.3-0.1,0.6-0.1,0.9-0.2c0.7-0.2,1.5-0.3,2.2-0.5c0.2,0,0.4-0.1,0.5-0.1c55.5-13.3,97.4-61.4,101.6-119.9
			c0,0,0-0.1,0-0.1c0.1-1.4,0.2-2.7,0.2-4.1c0-0.3,0-0.7,0-1c0-1.5,0.1-2.9,0.1-4.4c0-1.4,0-2.9-0.1-4.3
			C830.5,488.5,830.5,488.1,830.5,487.8z" style="fill: rgb(35, 64, 78);" transform="matrix(1, 0, 0, 1, 0, 0)"></path><path class="st1" d="M1188.7,413.7c-13.6-18.3-31.7-32.9-52.8-42.3c0,0,0,0,0,0c-16.5-7.4-34.9-11.5-54.2-11.5
			c-65.1,0-119.3,46.7-130.9,108.5c-51.2,24.7-81.8,53.4-76.7,77c5.4,24.8,48.7,38.2,109.8,38.1c15.9,17.2,36.3,30.2,59.4,37.1
			c0.1,0,0.2,0.1,0.4,0.1c1,0.3,2.1,0.6,3.2,0.9c0.2,0,0.4,0.1,0.5,0.1c1,0.3,2.1,0.5,3.1,0.8c0.2,0,0.3,0.1,0.5,0.1
			c1.2,0.3,2.3,0.5,3.5,0.8c0,0,0.1,0,0.1,0c2.4,0.5,4.9,0.9,7.4,1.3c0.3,0,0.6,0.1,0.9,0.1c0.9,0.1,1.8,0.2,2.7,0.4
			c0.4,0.1,0.8,0.1,1.3,0.1c0.8,0.1,1.6,0.2,2.4,0.2c0.5,0,0.9,0.1,1.4,0.1c0.8,0.1,1.6,0.1,2.4,0.2c0.5,0,0.9,0.1,1.4,0.1
			c0.8,0,1.7,0.1,2.5,0.1c0.4,0,0.8,0,1.2,0c1.2,0,2.5,0.1,3.7,0.1h0l0,0h0c1.5,0,3,0,4.5-0.1c0.4,0,0.8,0,1.2,0
			c1.3-0.1,2.7-0.1,4-0.2c0.2,0,0.3,0,0.5,0c1.5-0.1,2.9-0.2,4.4-0.4c0.4,0,0.7-0.1,1.1-0.1c1.3-0.1,2.5-0.3,3.8-0.5
			c0.2,0,0.4-0.1,0.7-0.1c1.4-0.2,2.9-0.5,4.3-0.7c0.3-0.1,0.6-0.1,0.8-0.2c1.3-0.2,2.5-0.5,3.8-0.8c0.2,0,0.4-0.1,0.7-0.1
			c1.4-0.3,2.9-0.7,4.3-1.1c0.2,0,0.3-0.1,0.5-0.1c1.3-0.4,2.6-0.7,3.9-1.1c0.2-0.1,0.4-0.1,0.5-0.2c2.9-0.9,5.8-1.9,8.6-2.9
			c0.1,0,0.2-0.1,0.3-0.1c2.9-1.1,5.7-2.3,8.5-3.6c0,0,0,0,0.1,0c32.3-15.1,57.5-42.8,69.4-76.7c62.2-26.4,100.8-59,95.1-85.4
			C1297,426.4,1251.9,413,1188.7,413.7z M948.6,490C948.6,490,948.6,490,948.6,490c0,0,0-0.1,0-0.1C948.6,489.9,948.6,490,948.6,490
			z M948.7,487c0-0.1,0-0.1,0-0.2C948.7,486.9,948.7,486.9,948.7,487z M893.5,541.2c-2.5-11.3,19-26.7,55.2-42.2
			c0.9,20.7,6.5,40.2,15.9,57.4C923.3,557.9,896,552.9,893.5,541.2z M1214.6,503.6c0.2-2,0.3-4,0.3-6.1c0-0.1,0-0.2,0-0.2
			c0-1.4,0.1-2.8,0.1-4.2c0-1.6,0-3.2-0.1-4.7c0-0.4,0-0.7,0-1.1c-0.1-1.6-0.2-3.1-0.3-4.7c0-0.1,0-0.2,0-0.3
			c-0.1-1.5-0.3-3-0.4-4.5c0-0.3-0.1-0.5-0.1-0.8c-0.2-1.6-0.4-3.2-0.7-4.8c0,0,0-0.1,0-0.1c-0.3-1.6-0.5-3.2-0.9-4.9
			c0-0.1,0-0.1,0-0.2c-1.8-9.1-4.5-17.8-8-26.1c45.6-2.4,76.2,2.5,78.9,14.8C1286.1,468.6,1259,486.4,1214.6,503.6z" style="fill: rgb(35, 64, 78);" transform="matrix(1, 0, 0, 1, 0, 0)"></path><path d="M 129.800003 106.300003 A 15 15 0 0 1 114.800003 121.300003 A 15 15 0 0 1 99.800003 106.300003 A 15 15 0 0 1 114.800003 91.300003 A 15 15 0 0 1 129.800003 106.300003 Z" class="st1" style="fill: rgb(35, 64, 78);" transform="matrix(1, 0, 0, 1, 0, 0)"></path><path d="M 171.800003 304.399994 A 18 18 0 0 1 153.800003 322.399994 A 18 18 0 0 1 135.800003 304.399994 A 18 18 0 0 1 153.800003 286.399994 A 18 18 0 0 1 171.800003 304.399994 Z" class="st1" style="fill: rgb(35, 64, 78);" transform="matrix(1, 0, 0, 1, 0, 0)"></path><path d="M 99.800003 448.399994 A 12 12 0 0 1 87.800003 460.399994 A 12 12 0 0 1 75.800003 448.399994 A 12 12 0 0 1 87.800003 436.399994 A 12 12 0 0 1 99.800003 448.399994 Z" class="st1" style="fill: rgb(35, 64, 78);" transform="matrix(1, 0, 0, 1, 0, 0)"></path><path d="M 174.800003 649.400024 A 12 12 0 0 1 162.800003 661.400024 A 12 12 0 0 1 150.800003 649.400024 A 12 12 0 0 1 162.800003 637.400024 A 12 12 0 0 1 174.800003 649.400024 Z" class="st1" style="fill: rgb(35, 64, 78);" transform="matrix(1, 0, 0, 1, 0, 0)"></path><path d="M 111.800003 817.400024 A 12 12 0 0 1 99.800003 829.400024 A 12 12 0 0 1 87.800003 817.400024 A 12 12 0 0 1 99.800003 805.400024 A 12 12 0 0 1 111.800003 817.400024 Z" class="st1" style="fill: rgb(35, 64, 78);" transform="matrix(1, 0, 0, 1, 0, 0)"></path><path d="M 483.799988 928.400024 A 24 24 0 0 1 459.799988 952.400024 A 24 24 0 0 1 435.799988 928.400024 A 24 24 0 0 1 459.799988 904.400024 A 24 24 0 0 1 483.799988 928.400024 Z" class="st1" style="fill: rgb(35, 64, 78);" transform="matrix(1, 0, 0, 1, 0, 0)"></path><path d="M 549.799988 655.400024 A 12 12 0 0 1 537.799988 667.400024 A 12 12 0 0 1 525.799988 655.400024 A 12 12 0 0 1 537.799988 643.400024 A 12 12 0 0 1 549.799988 655.400024 Z" class="st1" style="fill: rgb(35, 64, 78);" transform="matrix(1, 0, 0, 1, 0, 0)"></path><path d="M 456.799988 667.400024 A 12 12 0 0 1 444.799988 679.400024 A 12 12 0 0 1 432.799988 667.400024 A 12 12 0 0 1 444.799988 655.400024 A 12 12 0 0 1 456.799988 667.400024 Z" class="st1" style="fill: rgb(35, 64, 78);" transform="matrix(1, 0, 0, 1, 0, 0)"></path><path d="M 486.799988 340.399994 A 18 18 0 0 1 468.799988 358.399994 A 18 18 0 0 1 450.799988 340.399994 A 18 18 0 0 1 468.799988 322.399994 A 18 18 0 0 1 486.799988 340.399994 Z" class="st1" style="fill: rgb(35, 64, 78);" transform="matrix(1, 0, 0, 1, 0, 0)"></path><path d="M 915.799988 337.399994 A 9 9 0 0 1 906.799988 346.399994 A 9 9 0 0 1 897.799988 337.399994 A 9 9 0 0 1 906.799988 328.399994 A 9 9 0 0 1 915.799988 337.399994 Z" class="st1" style="fill: rgb(35, 64, 78);" transform="matrix(1, 0, 0, 1, 0, 0)"></path><path d="M 504.799988 97.300003 A 27 27 0 0 1 477.799988 124.300003 A 27 27 0 0 1 450.799988 97.300003 A 27 27 0 0 1 477.799988 70.300003 A 27 27 0 0 1 504.799988 97.300003 Z" class="st1" style="fill: rgb(35, 64, 78);" transform="matrix(1, 0, 0, 1, 0, 0)"></path><path d="M 519.799988 475.399994 A 15 15 0 0 1 504.799988 490.399994 A 15 15 0 0 1 489.799988 475.399994 A 15 15 0 0 1 504.799988 460.399994 A 15 15 0 0 1 519.799988 475.399994 Z" class="st1" style="fill: rgb(35, 64, 78);" transform="matrix(1, 0, 0, 1, 0, 0)"></path><path d="M 908.599976 89.800003 A 24 24 0 0 1 884.599976 113.800003 A 24 24 0 0 1 860.599976 89.800003 A 24 24 0 0 1 884.599976 65.800003 A 24 24 0 0 1 908.599976 89.800003 Z" class="st1" style="fill: rgb(35, 64, 78);" transform="matrix(1, 0, 0, 1, 0, 0)"></path><path d="M 885.799988 652.400024 A 21 21 0 0 1 864.799988 673.400024 A 21 21 0 0 1 843.799988 652.400024 A 21 21 0 0 1 864.799988 631.400024 A 21 21 0 0 1 885.799988 652.400024 Z" class="st1" style="fill: rgb(35, 64, 78);" transform="matrix(1, 0, 0, 1, 0, 0)"></path><path d="M 975.799988 658.400024 A 12 12 0 0 1 963.799988 670.400024 A 12 12 0 0 1 951.799988 658.400024 A 12 12 0 0 1 963.799988 646.400024 A 12 12 0 0 1 975.799988 658.400024 Z" class="st1" style="fill: rgb(35, 64, 78);" transform="matrix(1, 0, 0, 1, 0, 0)"></path><path d="M 906.799988 895.400024 A 15 15 0 0 1 891.799988 910.400024 A 15 15 0 0 1 876.799988 895.400024 A 15 15 0 0 1 891.799988 880.400024 A 15 15 0 0 1 906.799988 895.400024 Z" class="st1" style="fill: rgb(35, 64, 78);" transform="matrix(1, 0, 0, 1, 0, 0)"></path><path d="M 1227.900024 922.400024 A 15 15 0 0 1 1212.900024 937.400024 A 15 15 0 0 1 1197.900024 922.400024 A 15 15 0 0 1 1212.900024 907.400024 A 15 15 0 0 1 1227.900024 922.400024 Z" class="st1" style="fill: rgb(35, 64, 78);" transform="matrix(1, 0, 0, 1, 0, 0)"></path><path d="M 1341.900024 661.400024 A 15 15 0 0 1 1326.900024 676.400024 A 15 15 0 0 1 1311.900024 661.400024 A 15 15 0 0 1 1326.900024 646.400024 A 15 15 0 0 1 1341.900024 661.400024 Z" class="st1" style="fill: rgb(35, 64, 78);" transform="matrix(1, 0, 0, 1, 0, 0)"></path><path d="M 1278.900024 343.399994 A 9 9 0 0 1 1269.900024 352.399994 A 9 9 0 0 1 1260.900024 343.399994 A 9 9 0 0 1 1269.900024 334.399994 A 9 9 0 0 1 1278.900024 343.399994 Z" class="st1" style="fill: rgb(35, 64, 78);" transform="matrix(1, 0, 0, 1, 0, 0)"></path><path d="M 1272.900024 127.300003 A 6 6 0 0 1 1266.900024 133.300003 A 6 6 0 0 1 1260.900024 127.300003 A 6 6 0 0 1 1266.900024 121.300003 A 6 6 0 0 1 1272.900024 127.300003 Z" class="st1" style="fill: rgb(35, 64, 78);" transform="matrix(1, 0, 0, 1, 0, 0)"></path><path d="M 1356.900024 94.300003 A 9 9 0 0 1 1347.900024 103.300003 A 9 9 0 0 1 1338.900024 94.300003 A 9 9 0 0 1 1347.900024 85.300003 A 9 9 0 0 1 1356.900024 94.300003 Z" class="st1" style="fill: rgb(35, 64, 78);" transform="matrix(1, 0, 0, 1, 0, 0)"></path><path d="M 1251.900024 613.400024 A 15 15 0 0 1 1236.900024 628.400024 A 15 15 0 0 1 1221.900024 613.400024 A 15 15 0 0 1 1236.900024 598.400024 A 15 15 0 0 1 1251.900024 613.400024 Z" class="st1" style="fill: rgb(35, 64, 78);" transform="matrix(1, 0, 0, 1, 0, 0)"></path><path d="M 451.099991 186.199997 A 133.199997 133.199997 0 0 1 317.899994 319.399994 A 133.199997 133.199997 0 0 1 184.699997 186.199997 A 133.199997 133.199997 0 0 1 317.899994 53 A 133.199997 133.199997 0 0 1 451.099991 186.199997 Z" class="st2" style="fill: rgb(201, 144, 104);" transform="matrix(1, 0, 0, 1, 0, 0)"></path><path d="M 830.600021 186.199997 A 133.199997 133.199997 0 0 1 697.400024 319.399994 A 133.199997 133.199997 0 0 1 564.200027 186.199997 A 133.199997 133.199997 0 0 1 697.400024 53 A 133.199997 133.199997 0 0 1 830.600021 186.199997 Z" class="st3" style="fill: rgb(251, 200, 186);" transform="matrix(1, 0, 0, 1, 0, 0)"></path><path d="M 1215.000046 186.199997 A 133.199997 133.199997 0 0 1 1081.800049 319.399994 A 133.199997 133.199997 0 0 1 948.600052 186.199997 A 133.199997 133.199997 0 0 1 1081.800049 53 A 133.199997 133.199997 0 0 1 1215.000046 186.199997 Z" class="st4" style="fill: rgb(125, 208, 222);" transform="matrix(1, 0, 0, 1, 0, 0)"></path><path d="M 451.099991 481.799988 A 133.199997 133.199997 0 0 1 317.899994 614.999985 A 133.199997 133.199997 0 0 1 184.699997 481.799988 A 133.199997 133.199997 0 0 1 317.899994 348.599991 A 133.199997 133.199997 0 0 1 451.099991 481.799988 Z" class="st5" style="fill: rgb(232, 98, 63);" transform="matrix(1, 0, 0, 1, 0, 0)"></path><path d="M 830.600021 481.799988 A 133.199997 133.199997 0 0 1 697.400024 614.999985 A 133.199997 133.199997 0 0 1 564.200027 481.799988 A 133.199997 133.199997 0 0 1 697.400024 348.599991 A 133.199997 133.199997 0 0 1 830.600021 481.799988 Z" class="st6" style="fill: rgb(201, 198, 192);" transform="matrix(1, 0, 0, 1, 0, 0)"></path><path d="M 1215.000046 481.799988 A 133.199997 133.199997 0 0 1 1081.800049 614.999985 A 133.199997 133.199997 0 0 1 948.600052 481.799988 A 133.199997 133.199997 0 0 1 1081.800049 348.599991 A 133.199997 133.199997 0 0 1 1215.000046 481.799988 Z" class="st7" style="fill: rgb(244, 219, 128);" transform="matrix(1, 0, 0, 1, 0, 0)"></path><path d="M 451.099991 777.400024 A 133.199997 133.199997 0 0 1 317.899994 910.600021 A 133.199997 133.199997 0 0 1 184.699997 777.400024 A 133.199997 133.199997 0 0 1 317.899994 644.200027 A 133.199997 133.199997 0 0 1 451.099991 777.400024 Z" class="st8" style="fill: rgb(48, 151, 196);" transform="matrix(1, 0, 0, 1, 0, 0)"></path><path d="M 830.600021 777.400024 A 133.199997 133.199997 0 0 1 697.400024 910.600021 A 133.199997 133.199997 0 0 1 564.200027 777.400024 A 133.199997 133.199997 0 0 1 697.400024 644.200027 A 133.199997 133.199997 0 0 1 830.600021 777.400024 Z" class="st9" style="fill: rgb(110, 203, 211);" transform="matrix(1, 0, 0, 1, 0, 0)"></path><path d="M 1215.000046 777.400024 A 133.199997 133.199997 0 0 1 1081.800049 910.600021 A 133.199997 133.199997 0 0 1 948.600052 777.400024 A 133.199997 133.199997 0 0 1 1081.800049 644.200027 A 133.199997 133.199997 0 0 1 1215.000046 777.400024 Z" class="st10" style="fill: rgb(222, 234, 242);" transform="matrix(1, 0, 0, 1, 0, 0)"></path><g transform="matrix(1, 0, 0, 1, 0, 0)">
				<path class="st11" d="M830.6,186.2c0-16.6-3.1-32.5-8.6-47.1c-63.1,54.3-133.6,101.4-213.5,123.5c-5.6,1.6-11.4,3-17.2,4.1
					c17.1,22.5,41.3,39.4,69.2,47.4c9-1.9,18-4.1,26.8-6.9c52.9-16.8,97.5-51.3,139.2-88.6C829.2,208.2,830.6,197.4,830.6,186.2z" style="fill: rgb(244, 182, 159);"></path>
			</g><path class="st11" d="M777,139.8c10.7-9.3,20.3-19.8,28.7-31.2c-17.8-24.8-44-43.2-74.4-51.2c-47.2,38-101.7,67-159.6,85
					c-4.8,13.7-7.4,28.5-7.4,43.9c0,11,1.4,21.7,3.9,32c44.2-4.9,87.7-15.7,129-32.2C725.8,174.4,753.7,160,777,139.8z" style="fill: rgb(244, 182, 159);" transform="matrix(1, 0, 0, 1, 0, 0)"></path><path d="M 313.500008 147.899994 A 47.400002 47.400002 0 0 1 266.100006 195.299995 A 47.400002 47.400002 0 0 1 218.700005 147.899994 A 47.400002 47.400002 0 0 1 266.100006 100.499992 A 47.400002 47.400002 0 0 1 313.500008 147.899994 Z" class="st12" style="fill: rgb(216, 164, 127);" transform="matrix(1, 0, 0, 1, 0, 0)"></path><path d="M 335.499994 89.5 A 14.6 14.6 0 0 1 320.899994 104.1 A 14.6 14.6 0 0 1 306.299994 89.5 A 14.6 14.6 0 0 1 320.899994 74.9 A 14.6 14.6 0 0 1 335.499994 89.5 Z" class="st12" style="fill: rgb(216, 164, 127);" transform="matrix(1, 0, 0, 1, 0, 0)"></path><path d="M 386.5 135.100006 A 25.5 25.5 0 0 1 361 160.600006 A 25.5 25.5 0 0 1 335.5 135.100006 A 25.5 25.5 0 0 1 361 109.600006 A 25.5 25.5 0 0 1 386.5 135.100006 Z" class="st12" style="fill: rgb(216, 164, 127);" transform="matrix(1, 0, 0, 1, 0, 0)"></path><path d="M 399.399994 220.800003 A 42 42 0 0 1 357.399994 262.800003 A 42 42 0 0 1 315.399994 220.800003 A 42 42 0 0 1 357.399994 178.800003 A 42 42 0 0 1 399.399994 220.800003 Z" class="st12" style="fill: rgb(216, 164, 127);" transform="matrix(1, 0, 0, 1, 0, 0)"></path><path d="M 430.300007 167.899994 A 18.200001 18.200001 0 0 1 412.100006 186.099995 A 18.200001 18.200001 0 0 1 393.900005 167.899994 A 18.200001 18.200001 0 0 1 412.100006 149.699993 A 18.200001 18.200001 0 0 1 430.300007 167.899994 Z" class="st12" style="fill: rgb(216, 164, 127);" transform="matrix(1, 0, 0, 1, 0, 0)"></path><path d="M 298.899994 250 A 31 31 0 0 1 267.899994 281 A 31 31 0 0 1 236.899994 250 A 31 31 0 0 1 267.899994 219 A 31 31 0 0 1 298.899994 250 Z" class="st12" style="fill: rgb(216, 164, 127);" transform="matrix(1, 0, 0, 1, 0, 0)"></path><path d="M 339.100012 282.899994 A 16.4 16.4 0 0 1 322.700012 299.299994 A 16.4 16.4 0 0 1 306.300013 282.899994 A 16.4 16.4 0 0 1 322.700012 266.499994 A 16.4 16.4 0 0 1 339.100012 282.899994 Z" class="st12" style="fill: rgb(216, 164, 127);" transform="matrix(1, 0, 0, 1, 0, 0)"></path><path d="M 264.900003 202.600006 A 14.6 14.6 0 0 1 250.300003 217.200006 A 14.6 14.6 0 0 1 235.700003 202.600006 A 14.6 14.6 0 0 1 250.300003 188.000006 A 14.6 14.6 0 0 1 264.900003 202.600006 Z" class="st12" style="fill: rgb(216, 164, 127);" transform="matrix(1, 0, 0, 1, 0, 0)"></path><g transform="matrix(1, 0, 0, 1, 0, 0)">
				<path class="st13" d="M1124.3,68.4c-12.6,6.2-27.1,17-24,30.7c0.8,3.7,3,7.3,2.5,11.1c-1.3,9.2-17.3,15.1-12.3,22.9
					c17.7,8.5,40.6,4.4,54.2-9.6c3.5-3.5,6.5-7.7,11-9.8c12.1-5.8,26.8,6.6,39.4,2.5c-14.7-23.7-36.6-42.5-62.7-53.2
					C1130.2,65.2,1127.1,67,1124.3,68.4z" style="fill: rgb(107, 188, 130);"></path>
			</g><path class="st13" d="M962.3,127.2c3.7,2.3,7.7,4,11.8,5.1c15,4.1,30.8,1.6,46.1-0.8c9.6-5.3-0.4-20.2,2.1-30.9
					c1-4.3,4.2-7.8,6-11.9c3.5-7.7,1.9-16-1.9-23.8C998.6,77.7,975.9,99.8,962.3,127.2z" style="fill: rgb(107, 188, 130);" transform="matrix(1, 0, 0, 1, 0, 0)"></path><path class="st13" d="M1171.3,284.8c0.1-19.2,16.8-39.5,6.2-55.4c-5.6-8.4-17.2-11.5-22.4-20.2c-4.5-7.4-3.6-17.7-9.7-23.9
					c-3.4-3.5-8.4-4.9-13.3-5.4c-22.2-2.7-45.4,9.9-55.2,30c-2.6,5.3-4.4,11.1-8,15.7c-12,15.1-39.8,12.9-47.6,30.6
					c-4,9.1-0.2,20.4,7.2,27c7.4,6.6,17.8,9.2,27.7,9.4c4,0.1,8.3-0.1,11.8,1.8c4.5,2.5,6.6,7.7,8.8,12.4c2,4.4,4.4,8.6,7.1,12.6
					C1117.5,318.8,1148.2,305.8,1171.3,284.8z" style="fill: rgb(107, 188, 130);" transform="matrix(1, 0, 0, 1, 0, 0)"></path><path d="M 282.499994 428.899994 A 14.6 14.6 0 0 1 267.899994 443.499994 A 14.6 14.6 0 0 1 253.299994 428.899994 A 14.6 14.6 0 0 1 267.899994 414.299994 A 14.6 14.6 0 0 1 282.499994 428.899994 Z" class="st14" style="fill: rgb(201, 81, 57);" transform="matrix(1, 0, 0, 1, 0, 0)"></path><path d="M 375.599987 405.100006 A 38.299999 38.299999 0 0 1 337.299988 443.400005 A 38.299999 38.299999 0 0 1 298.999989 405.100006 A 38.299999 38.299999 0 0 1 337.299988 366.800007 A 38.299999 38.299999 0 0 1 375.599987 405.100006 Z" class="st14" style="fill: rgb(201, 81, 57);" transform="matrix(1, 0, 0, 1, 0, 0)"></path><path d="M 284.299995 505.5 A 40.099998 40.099998 0 0 1 244.199997 545.599998 A 40.099998 40.099998 0 0 1 204.099998 505.5 A 40.099998 40.099998 0 0 1 244.199997 465.400002 A 40.099998 40.099998 0 0 1 284.299995 505.5 Z" class="st14" style="fill: rgb(201, 81, 57);" transform="matrix(1, 0, 0, 1, 0, 0)"></path><path d="M 339.099995 489.100006 A 23.700001 23.700001 0 0 1 315.399994 512.800007 A 23.700001 23.700001 0 0 1 291.699993 489.100006 A 23.700001 23.700001 0 0 1 315.399994 465.400005 A 23.700001 23.700001 0 0 1 339.099995 489.100006 Z" class="st14" style="fill: rgb(201, 81, 57);" transform="matrix(1, 0, 0, 1, 0, 0)"></path><path d="M 348.200012 562.099976 A 31 31 0 0 1 317.200012 593.099976 A 31 31 0 0 1 286.200012 562.099976 A 31 31 0 0 1 317.200012 531.099976 A 31 31 0 0 1 348.200012 562.099976 Z" class="st14" style="fill: rgb(201, 81, 57);" transform="matrix(1, 0, 0, 1, 0, 0)"></path><path d="M 421.300007 500 A 34.700001 34.700001 0 0 1 386.600006 534.700001 A 34.700001 34.700001 0 0 1 351.900005 500 A 34.700001 34.700001 0 0 1 386.600006 465.299999 A 34.700001 34.700001 0 0 1 421.300007 500 Z" class="st14" style="fill: rgb(201, 81, 57);" transform="matrix(1, 0, 0, 1, 0, 0)"></path><path d="M 412.099988 434.299988 A 12.8 12.8 0 0 1 399.299988 447.099988 A 12.8 12.8 0 0 1 386.499988 434.299988 A 12.8 12.8 0 0 1 399.299988 421.499988 A 12.8 12.8 0 0 1 412.099988 434.299988 Z" class="st14" style="fill: rgb(201, 81, 57);" transform="matrix(1, 0, 0, 1, 0, 0)"></path><path d="M 293.500012 379.600006 A 12.8 12.8 0 0 1 280.700012 392.400006 A 12.8 12.8 0 0 1 267.900012 379.600006 A 12.8 12.8 0 0 1 280.700012 366.800006 A 12.8 12.8 0 0 1 293.500012 379.600006 Z" class="st14" style="fill: rgb(201, 81, 57);" transform="matrix(1, 0, 0, 1, 0, 0)"></path><path d="M 270.400003 441.600006 A 14.6 14.6 0 0 1 255.800003 456.200006 A 14.6 14.6 0 0 1 241.200003 441.600006 A 14.6 14.6 0 0 1 255.800003 427.000006 A 14.6 14.6 0 0 1 270.400003 441.600006 Z" class="st14" style="fill: rgb(201, 81, 57);" transform="matrix(1, 0, 0, 1, 0, 0)"></path><path d="M 388.299994 563.900024 A 10.9 10.9 0 0 1 377.399994 574.800024 A 10.9 10.9 0 0 1 366.499994 563.900024 A 10.9 10.9 0 0 1 377.399994 553.000025 A 10.9 10.9 0 0 1 388.299994 563.900024 Z" class="st14" style="fill: rgb(201, 81, 57);" transform="matrix(1, 0, 0, 1, 0, 0)"></path><path d="M 269.700006 567.5 A 9.1 9.1 0 0 1 260.600006 576.6 A 9.1 9.1 0 0 1 251.500006 567.5 A 9.1 9.1 0 0 1 260.600006 558.4 A 9.1 9.1 0 0 1 269.700006 567.5 Z" class="st14" style="fill: rgb(201, 81, 57);" transform="matrix(1, 0, 0, 1, 0, 0)"></path><g transform="matrix(1, 0, 0, 1, 0, 0)">
				<path class="st15" d="M583.1,550.1c23.3,38.9,65.8,64.9,114.4,64.9c34,0,65-12.8,88.5-33.7C719.4,596.8,646.2,581,583.1,550.1z" style="fill: rgb(181, 172, 164);"></path>
			</g><path class="st15" d="M594.6,405.9c6.2,4.8,12.7,9.6,20.2,11.8c8.1,2.3,16.8,1.2,25.2,1.1c15.4-0.1,30.5,3.5,45.8,5.1
					c32.8,3.4,66.4-2.4,96.2-16.6c6.2-3,12.4-6.5,17.6-11c-12-14.3-26.8-26-43.7-34.2c-15.7,5.3-32.4,8.6-48.7,11.1
					c-19.1,2.9-38.6,5.3-57.7,1.9c-7.4-1.3-14.6-3.6-21.4-6.9c-14.7,9-27.5,20.7-37.7,34.5C591.8,403.7,593.2,404.8,594.6,405.9z" style="fill: rgb(181, 172, 164);" transform="matrix(1, 0, 0, 1, 0, 0)"></path><path class="st15" d="M825.5,445.3c-18.6,12.7-39.5,22.1-61.4,27.3c-62.9,14.8-128.2-4.3-190-23.4c-1.8-0.6-3.6-1.1-5.4-1.7
					c-2.9,10.9-4.5,22.4-4.5,34.3c0,7.2,0.6,14.3,1.7,21.2c21.6,15.1,49.3,22.5,75.8,27.1c61,10.5,126.5,10.7,183.6-11.1
					c3.4-11.8,5.3-24.3,5.3-37.2C830.6,469.1,828.8,456.9,825.5,445.3z" style="fill: rgb(181, 172, 164);" transform="matrix(1, 0, 0, 1, 0, 0)"></path><g transform="matrix(1, 0, 0, 1, 0, 0)">
				<path class="st16" d="M950.6,458.7c-1.3,7.5-2,15.2-2,23c0,6.1,0.4,12,1.2,17.8c80.9,42.7,183.3,42,264.1-0.8
					c0.7-5.6,1.1-11.3,1.1-17.1c0-28.4-8.9-54.6-24-76.2c-57.3,39.2-126.8,60.6-196.2,59.4C979.9,464.7,964.6,463.2,950.6,458.7z" style="fill: rgb(244, 234, 185);"></path>
			</g><path class="st16" d="M1111,351.8c-38.1,33.6-88.5,53.3-139.3,54.9c-4.9,7.1-9.1,14.7-12.5,22.8c39.8,7.1,81.4,9.4,118.6-5.8
					c27.6-11.2,51.5-34.8,61.5-62.1C1130.4,357.3,1120.9,354,1111,351.8z" style="fill: rgb(244, 234, 185);" transform="matrix(1, 0, 0, 1, 0, 0)"></path><path class="st16" d="M1081.8,615c53.7,0,99.9-31.8,121-77.6c-1.7,1.1-3.3,2.1-4.9,3.2c-58.9,38.7-135.4,35.6-205.2,25.7
					c-5.2-0.7-10.5-1.6-15.8-2.5C1001.3,595,1039.2,615,1081.8,615z" style="fill: rgb(244, 234, 185);" transform="matrix(1, 0, 0, 1, 0, 0)"></path><path class="st17" d="M1302.6,440.4c-5.5-25.3-50.7-38.8-113.9-38c6.3,8.4,11.6,17.6,15.7,27.4c45.6-2.4,76.2,2.5,78.9,14.8
			c4.8,21.8-78.6,58.5-186.3,82.1c-107.6,23.6-198.8,25-203.5,3.2c-2.5-11.3,19-26.7,55.3-42.2c-0.1-2-0.2-3.9-0.2-5.9
			c0-8.4,0.8-16.7,2.3-24.7c-51.2,24.7-81.9,53.4-76.7,77.1c8.6,39.1,111.4,49.8,229.7,24C1222.2,532.2,1311.2,479.5,1302.6,440.4z" style="fill: rgb(241, 184, 88);" transform="matrix(1, 0, 0, 1, 0, 0)"></path><g transform="matrix(1, 0, 0, 1, 0, 0)">
				<path class="st18" d="M372,873.4c-3.4,2.9-6.9,5.9-11.2,7.2c-7.8,2.5-16.1-1-24.2-2.3c-19.8-3-38.8,7.8-55.7,18.5
					c-3,1.9-6,3.8-9,5.6c14.3,5.3,29.8,8.2,46,8.2c47.9,0,89.9-25.3,113.4-63.3c-1.6-0.2-3.1-0.3-4.7-0.3
					C405.9,847.1,387.8,860.1,372,873.4z" style="fill: rgb(42, 115, 174);"></path>
			</g><path class="st18" d="M185.8,760.2c9,3.3,17.4,10.2,26.7,8.4c13.4-2.5,18.7-21,31.9-24.4c7.1-1.8,14.5,1.3,21.6,3.4
					c30.4,8.8,66-5.2,82.2-32.4c3.2-5.4,6-11.5,11.2-15.1c12.9-8.8,30.5,3.2,45.9,0.4c6.1-1.1,10.9-4.4,14.5-8.9
					c-13.8-16.4-31.5-29.4-51.7-37.6c-1.5,1.4-3.2,2.7-5.1,3.6c-6.7,3.4-14.6,2.6-22.1,3.2c-17.9,1.2-35.1,10.7-45.8,25.1
					c-7.6,10.3-13.9,24.2-26.5,26.1c-6.8,1-13.6-2-20.1-4.1c-13.6-4.4-28.3-5.3-42.3-2.6C195.5,721.5,188.4,740.1,185.8,760.2z" style="fill: rgb(42, 115, 174);" transform="matrix(1, 0, 0, 1, 0, 0)"></path><path class="st18" d="M437.1,718c-3.8,6.5-9.8,11.5-15.7,16.3c-20.7,16.8-41.4,33.5-62,50.3c-8.5,6.9-17.4,14-28,17
					c-25.3,7.1-53.3-10.9-77.8-1.3c-9.7,3.8-17.2,11.5-25.8,17.4c-9.6,6.6-20.9,11.1-32.5,12.1c4.9,11.5,11.4,22.2,19.2,31.7
					c0.2-0.1,0.4-0.2,0.6-0.3c10.4-4.8,21.9-8.2,33.3-6.9c19.9,2.1,40.1,17.7,57.9,8.5c8.5-4.4,13.6-13.6,21.6-18.8
					c18.7-12.2,45.5,0.9,65.4-9.3c18.5-9.6,22.8-34.8,39.2-47.7c5.4-4.3,12-7,18.6-9.5c0,0,0,0,0-0.1C451.1,756,446,735.9,437.1,718
					z" style="fill: rgb(42, 115, 174);" transform="matrix(1, 0, 0, 1, 0, 0)"></path><g transform="matrix(1, 0, 0, 1, 0, 0)">
				<path class="st19" d="M629.8,892.1c2.7-5.7,4.8-11.8,6.6-17.8c8.5-30,7.5-61.9,4.1-92.9c-4.2-37.4-12.1-74.4-23.4-110.3
					c-12,9.1-22.3,20.1-30.6,32.6c2.6,6.8,5.1,13.7,7.1,20.7c12.1,42.3,6.5,86.1-5.3,129.1C599.1,869.2,613.3,882.4,629.8,892.1z" style="fill: rgb(143, 212, 216);"></path>
			</g><path class="st19" d="M797.4,865.3c20.7-23.5,33.2-54.2,33.2-88c0-27.6-8.4-53.2-22.8-74.5C816.4,756,809.2,811.4,797.4,865.3z" style="fill: rgb(143, 212, 216);" transform="matrix(1, 0, 0, 1, 0, 0)"></path><path class="st19" d="M697.4,910.6c17.8,0,34.9-3.5,50.4-9.9c0.5-1.2,1-2.3,1.4-3.5c21.1-54.2,12.5-114.8,2.3-172.1
					c-4-22.7-8.3-45.5-15.9-67.3c-1-3-2.2-6-3.4-9c-11.1-3-22.9-4.7-35-4.7c-6.6,0-13,0.5-19.4,1.4c11,25,21.6,50.3,28.4,76.8
					c16,62.1,9.4,129.6-17,188C692.1,910.5,694.8,910.6,697.4,910.6z" style="fill: rgb(143, 212, 216);" transform="matrix(1, 0, 0, 1, 0, 0)"></path><path d="M 1059.899975 750 A 38.299999 38.299999 0 0 1 1021.599976 788.299999 A 38.299999 38.299999 0 0 1 983.299976 750 A 38.299999 38.299999 0 0 1 1021.599976 711.700001 A 38.299999 38.299999 0 0 1 1059.899975 750 Z" class="st20" style="fill: rgb(196, 213, 219);" transform="matrix(1, 0, 0, 1, 0, 0)"></path><path d="M 1100.00005 691.599976 A 18.200001 18.200001 0 0 1 1081.800049 709.799976 A 18.200001 18.200001 0 0 1 1063.600048 691.599976 A 18.200001 18.200001 0 0 1 1081.800049 673.399975 A 18.200001 18.200001 0 0 1 1100.00005 691.599976 Z" class="st20" style="fill: rgb(196, 213, 219);" transform="matrix(1, 0, 0, 1, 0, 0)"></path><path d="M 1169.29995 773.700012 A 40.099998 40.099998 0 0 1 1129.199951 813.800011 A 40.099998 40.099998 0 0 1 1089.099953 773.700012 A 40.099998 40.099998 0 0 1 1129.199951 733.600014 A 40.099998 40.099998 0 0 1 1169.29995 773.700012 Z" class="st20" style="fill: rgb(196, 213, 219);" transform="matrix(1, 0, 0, 1, 0, 0)"></path><path d="M 1098.200001 852.200012 A 29.200001 29.200001 0 0 1 1069 881.400013 A 29.200001 29.200001 0 0 1 1039.799999 852.200012 A 29.200001 29.200001 0 0 1 1069 823.000011 A 29.200001 29.200001 0 0 1 1098.200001 852.200012 Z" class="st20" style="fill: rgb(196, 213, 219);" transform="matrix(1, 0, 0, 1, 0, 0)"></path><path d="M 1145.700025 844.900024 A 12.8 12.8 0 0 1 1132.900024 857.700025 A 12.8 12.8 0 0 1 1120.100024 844.900024 A 12.8 12.8 0 0 1 1132.900024 832.100024 A 12.8 12.8 0 0 1 1145.700025 844.900024 Z" class="st20" style="fill: rgb(196, 213, 219);" transform="matrix(1, 0, 0, 1, 0, 0)"></path><path d="M 1028.899988 821.200012 A 14.6 14.6 0 0 1 1014.299988 835.800013 A 14.6 14.6 0 0 1 999.699987 821.200012 A 14.6 14.6 0 0 1 1014.299988 806.600012 A 14.6 14.6 0 0 1 1028.899988 821.200012 Z" class="st20" style="fill: rgb(196, 213, 219);" transform="matrix(1, 0, 0, 1, 0, 0)"></path><path d="M 1151.1 698.900024 A 14.6 14.6 0 0 1 1136.5 713.500025 A 14.6 14.6 0 0 1 1121.9 698.900024 A 14.6 14.6 0 0 1 1136.5 684.300024 A 14.6 14.6 0 0 1 1151.1 698.900024 Z" class="st20" style="fill: rgb(196, 213, 219);" transform="matrix(1, 0, 0, 1, 0, 0)"></path><path d="M 129.800003 95 A 15 15 0 0 1 114.800003 110 A 15 15 0 0 1 99.800003 95 A 15 15 0 0 1 114.800003 80 A 15 15 0 0 1 129.800003 95 Z" class="st16" style="fill: rgb(244, 234, 185);" transform="matrix(1, 0, 0, 1, 0, 0)"></path><path d="M 171.800003 293 A 18 18 0 0 1 153.800003 311 A 18 18 0 0 1 135.800003 293 A 18 18 0 0 1 153.800003 275 A 18 18 0 0 1 171.800003 293 Z" class="st16" style="fill: rgb(244, 234, 185);" transform="matrix(1, 0, 0, 1, 0, 0)"></path><path d="M 99.800003 437 A 12 12 0 0 1 87.800003 449 A 12 12 0 0 1 75.800003 437 A 12 12 0 0 1 87.800003 425 A 12 12 0 0 1 99.800003 437 Z" class="st16" style="fill: rgb(244, 234, 185);" transform="matrix(1, 0, 0, 1, 0, 0)"></path><path d="M 174.800003 638.099976 A 12 12 0 0 1 162.800003 650.099976 A 12 12 0 0 1 150.800003 638.099976 A 12 12 0 0 1 162.800003 626.099976 A 12 12 0 0 1 174.800003 638.099976 Z" class="st16" style="fill: rgb(244, 234, 185);" transform="matrix(1, 0, 0, 1, 0, 0)"></path><path d="M 111.800003 806.099976 A 12 12 0 0 1 99.800003 818.099976 A 12 12 0 0 1 87.800003 806.099976 A 12 12 0 0 1 99.800003 794.099976 A 12 12 0 0 1 111.800003 806.099976 Z" class="st16" style="fill: rgb(244, 234, 185);" transform="matrix(1, 0, 0, 1, 0, 0)"></path><path d="M 483.799988 917.099976 A 24 24 0 0 1 459.799988 941.099976 A 24 24 0 0 1 435.799988 917.099976 A 24 24 0 0 1 459.799988 893.099976 A 24 24 0 0 1 483.799988 917.099976 Z" class="st16" style="fill: rgb(244, 234, 185);" transform="matrix(1, 0, 0, 1, 0, 0)"></path><path d="M 549.799988 644.099976 A 12 12 0 0 1 537.799988 656.099976 A 12 12 0 0 1 525.799988 644.099976 A 12 12 0 0 1 537.799988 632.099976 A 12 12 0 0 1 549.799988 644.099976 Z" class="st16" style="fill: rgb(244, 234, 185);" transform="matrix(1, 0, 0, 1, 0, 0)"></path><path d="M 456.799988 656.099976 A 12 12 0 0 1 444.799988 668.099976 A 12 12 0 0 1 432.799988 656.099976 A 12 12 0 0 1 444.799988 644.099976 A 12 12 0 0 1 456.799988 656.099976 Z" class="st16" style="fill: rgb(244, 234, 185);" transform="matrix(1, 0, 0, 1, 0, 0)"></path><path d="M 486.799988 329 A 18 18 0 0 1 468.799988 347 A 18 18 0 0 1 450.799988 329 A 18 18 0 0 1 468.799988 311 A 18 18 0 0 1 486.799988 329 Z" class="st16" style="fill: rgb(244, 234, 185);" transform="matrix(1, 0, 0, 1, 0, 0)"></path><path d="M 915.799988 326 A 9 9 0 0 1 906.799988 335 A 9 9 0 0 1 897.799988 326 A 9 9 0 0 1 906.799988 317 A 9 9 0 0 1 915.799988 326 Z" class="st16" style="fill: rgb(244, 234, 185);" transform="matrix(1, 0, 0, 1, 0, 0)"></path><path d="M 504.799988 86 A 27 27 0 0 1 477.799988 113 A 27 27 0 0 1 450.799988 86 A 27 27 0 0 1 477.799988 59 A 27 27 0 0 1 504.799988 86 Z" class="st16" style="fill: rgb(244, 234, 185);" transform="matrix(1, 0, 0, 1, 0, 0)"></path><path d="M 519.799988 464 A 15 15 0 0 1 504.799988 479 A 15 15 0 0 1 489.799988 464 A 15 15 0 0 1 504.799988 449 A 15 15 0 0 1 519.799988 464 Z" class="st16" style="fill: rgb(244, 234, 185);" transform="matrix(1, 0, 0, 1, 0, 0)"></path><path d="M 908.599976 78.5 A 24 24 0 0 1 884.599976 102.5 A 24 24 0 0 1 860.599976 78.5 A 24 24 0 0 1 884.599976 54.5 A 24 24 0 0 1 908.599976 78.5 Z" class="st16" style="fill: rgb(244, 234, 185);" transform="matrix(1, 0, 0, 1, 0, 0)"></path><path d="M 885.799988 641.099976 A 21 21 0 0 1 864.799988 662.099976 A 21 21 0 0 1 843.799988 641.099976 A 21 21 0 0 1 864.799988 620.099976 A 21 21 0 0 1 885.799988 641.099976 Z" class="st16" style="fill: rgb(244, 234, 185);" transform="matrix(1, 0, 0, 1, 0, 0)"></path><path d="M 975.799988 647.099976 A 12 12 0 0 1 963.799988 659.099976 A 12 12 0 0 1 951.799988 647.099976 A 12 12 0 0 1 963.799988 635.099976 A 12 12 0 0 1 975.799988 647.099976 Z" class="st16" style="fill: rgb(244, 234, 185);" transform="matrix(1, 0, 0, 1, 0, 0)"></path><path d="M 906.799988 884.099976 A 15 15 0 0 1 891.799988 899.099976 A 15 15 0 0 1 876.799988 884.099976 A 15 15 0 0 1 891.799988 869.099976 A 15 15 0 0 1 906.799988 884.099976 Z" class="st16" style="fill: rgb(244, 234, 185);" transform="matrix(1, 0, 0, 1, 0, 0)"></path><path d="M 1227.900024 911.099976 A 15 15 0 0 1 1212.900024 926.099976 A 15 15 0 0 1 1197.900024 911.099976 A 15 15 0 0 1 1212.900024 896.099976 A 15 15 0 0 1 1227.900024 911.099976 Z" class="st16" style="fill: rgb(244, 234, 185);" transform="matrix(1, 0, 0, 1, 0, 0)"></path><path d="M 1341.900024 650.099976 A 15 15 0 0 1 1326.900024 665.099976 A 15 15 0 0 1 1311.900024 650.099976 A 15 15 0 0 1 1326.900024 635.099976 A 15 15 0 0 1 1341.900024 650.099976 Z" class="st16" style="fill: rgb(244, 234, 185);" transform="matrix(1, 0, 0, 1, 0, 0)"></path><path d="M 1278.900024 332 A 9 9 0 0 1 1269.900024 341 A 9 9 0 0 1 1260.900024 332 A 9 9 0 0 1 1269.900024 323 A 9 9 0 0 1 1278.900024 332 Z" class="st16" style="fill: rgb(244, 234, 185);" transform="matrix(1, 0, 0, 1, 0, 0)"></path><path d="M 1272.900024 116 A 6 6 0 0 1 1266.900024 122 A 6 6 0 0 1 1260.900024 116 A 6 6 0 0 1 1266.900024 110 A 6 6 0 0 1 1272.900024 116 Z" class="st16" style="fill: rgb(244, 234, 185);" transform="matrix(1, 0, 0, 1, 0, 0)"></path><path d="M 1356.900024 83 A 9 9 0 0 1 1347.900024 92 A 9 9 0 0 1 1338.900024 83 A 9 9 0 0 1 1347.900024 74 A 9 9 0 0 1 1356.900024 83 Z" class="st16" style="fill: rgb(244, 234, 185);" transform="matrix(1, 0, 0, 1, 0, 0)"></path><path d="M 1251.900024 602 A 15 15 0 0 1 1236.900024 617 A 15 15 0 0 1 1221.900024 602 A 15 15 0 0 1 1236.900024 587 A 15 15 0 0 1 1251.900024 602 Z" class="st16" style="fill: rgb(244, 234, 185);" transform="matrix(1, 0, 0, 1, 0, 0)"></path>
<g transform="matrix(1, 0, 0, 1, 0, 0)">
		<g>
			<g>
				<path class="st21" d="M732.3,937.7c0.8,0,1.6,0.7,1.6,0.7L720,968.2c-1.5,0-5.2,0.2-6.1,0.2c-0.8,0-1.6-0.7-1.6-0.7l-4.8-29.8
					c2.9,0,6.5-0.2,7.6-0.2c0.8,0,1.6,0.7,1.6,0.7l1.5,14.6c0.1,1.3,0.1,3,0.1,4.8c0.5-2,1-3.9,1.5-5.2l5.8-14.7
					C728.1,937.9,731.3,937.7,732.3,937.7L732.3,937.7z" style="fill: rgb(255, 255, 255);"></path>
			</g>
			<g>
				<path class="st21" d="M746.6,952.4c0,3.2-1.8,5.4-6.3,6.3l-4.7,1c0.4,2,1.6,3,3.8,3c2.6,0,4.4-2,4.4-2s1.3,0.7,1.3,2.3
					c0,2.7-4.1,5.6-9,5.6c-4.9,0-8.1-3.1-8.1-8.3c0-6,4.3-14.2,11.9-14.2C744,946.1,746.6,948.6,746.6,952.4L746.6,952.4z
					 M738.6,955.5c1-0.3,1.3-1.2,1.3-2.1c0-0.9-0.3-2.2-1.3-2.2c-1.9,0-2.7,3-3,5.3L738.6,955.5z" style="fill: rgb(255, 255, 255);"></path>
			</g>
			<g>
				<path class="st21" d="M759.4,946.1c3.8,0,6.7,2,6.7,4.7c0,3.3-4,4.5-4,4.5s-1.2-3.6-3.9-3.6c-1.8,0-2.9,1.8-2.9,5.8
					c0,3.6,1,5.2,3.3,5.2c2.4,0,3.9-1.6,3.9-1.6s1.3,0.7,1.3,2.2c0,2.6-4,5.3-8.6,5.3c-4.9,0-8-3.1-8-8.2
					C747.3,954.3,751.7,946.1,759.4,946.1L759.4,946.1z" style="fill: rgb(255, 255, 255);"></path>
			</g>
			<g>
				<path class="st21" d="M777.8,941.3c0.9,0,1.5,0.7,1.5,0.7l-0.7,4.5h4.8l-1.1,3.5c-0.4,1.1-0.9,1.7-2,1.7h-2.5l-1.4,8.9
					c-0.2,1.4,0.1,2.1,1.1,2.1c0.9,0,1.8-0.5,1.8-0.5s1.3,0.7,1.3,2.2c0,2.2-3.1,4.3-7,4.3c-4.1,0-5.8-2.5-5.1-7l1.6-9.9h-2.6
					l1.1-3.6c0.3-0.9,1.1-1.6,2-1.6h1.3l1.5-4.2C775.2,941.9,777,941.3,777.8,941.3L777.8,941.3z" style="fill: rgb(255, 255, 255);"></path>
			</g>
			<g>
				<path class="st21" d="M801.2,952.4c0,3.2-1.8,5.4-6.3,6.3l-4.7,1c0.4,2,1.6,3,3.8,3c2.6,0,4.4-2,4.4-2s1.3,0.7,1.3,2.3
					c0,2.7-4.1,5.6-9,5.6c-4.9,0-8.1-3.1-8.1-8.3c0-6,4.3-14.2,11.9-14.2C798.6,946.1,801.2,948.6,801.2,952.4L801.2,952.4z
					 M793.2,955.5c1-0.3,1.3-1.2,1.3-2.1c0-0.9-0.3-2.2-1.3-2.2c-1.9,0-2.7,3-3,5.3L793.2,955.5z" style="fill: rgb(255, 255, 255);"></path>
			</g>
			<g>
				<path class="st21" d="M820.5,952.4c0,3.2-1.8,5.4-6.3,6.3l-4.7,1c0.4,2,1.6,3,3.8,3c2.6,0,4.4-2,4.4-2s1.3,0.7,1.3,2.3
					c0,2.7-4.1,5.6-9,5.6c-4.9,0-8.1-3.1-8.1-8.3c0-6,4.3-14.2,11.9-14.2C817.9,946.1,820.5,948.6,820.5,952.4L820.5,952.4z
					 M812.5,955.5c1-0.3,1.3-1.2,1.3-2.1c0-0.9-0.3-2.2-1.3-2.2c-1.9,0-2.7,3-3,5.3L812.5,955.5z" style="fill: rgb(255, 255, 255);"></path>
			</g>
			<g>
				<path class="st21" d="M836.3,960.5c0,0,1.6,1.5,1.6,4c0,3.3-2.8,4.2-5.2,4.2c-3.1,0-5.3-1.5-7.6-2.3c-0.6,0.7-1.3,1.5-1.9,2.3
					c0,0-3.5-0.1-3.5-2.4c0-2.9,4.8-7.8,9.9-13.4c-0.6-0.1-1.2-0.2-1.7-0.2c-2.9,0-4.1,1.5-4.1,1.5s-1.5-1.7-1.4-4
					c0.2-3.1,3.1-4,5.5-4c2.5,0,4.3,1,6.1,1.7l1.5-1.7c0,0,3.5,0.1,3.5,2.5c0,2.8-4.6,7.6-9.6,13c1.1,0.3,2,0.5,3,0.5
					C835.1,962.2,836.3,960.5,836.3,960.5L836.3,960.5z" style="fill: rgb(255, 255, 255);"></path>
			</g>
			<g>
				<path class="st21" d="M858.7,966.7c-1.2,7.6-6.4,11.4-13,11.4c-4.2,0-7.3-2.2-7.3-4.8c0-1.7,1.4-2.5,1.4-2.5s1.4,1.3,4.2,1.3
					c2.6,0,6.2-1.1,6.8-5.1l0.5-3.1c-1.8,2.6-4.1,4.6-7.1,4.6c-3.3,0-4.8-2.7-3.9-8.3l0.9-6c0.6-3.7,0.7-6.7,0.7-6.7
					c2.4-0.4,5.5-1.5,6.6-1.5c0.8,0,1.6,0.7,1.6,0.7l-1.2,7.5l-1.1,6.9c-0.1,0.6,0,1,0.6,1c2.8,0,4.3-7.9,4.3-7.9
					c0.6-3.7,0.7-6.7,0.7-6.7c2.4-0.4,5.5-1.5,6.6-1.5c0.9,0,1.6,0.7,1.6,0.7l-1.2,7.5L858.7,966.7z" style="fill: rgb(255, 255, 255);"></path>
			</g>
		</g>
		<g>
			<path class="st21" d="M538.1,947.4h7.4c1.7,0,3,0.1,3.8,0.4c1.2,0.3,2.2,1,3,1.9c0.8,0.9,1.5,2,1.9,3.3c0.4,1.3,0.7,2.9,0.7,4.8
				c0,1.7-0.2,3.1-0.6,4.3c-0.5,1.5-1.2,2.7-2.2,3.6c-0.7,0.7-1.7,1.2-2.9,1.6c-0.9,0.3-2.1,0.4-3.6,0.4h-7.7V947.4z M542.2,950.8
				v13.4h3c1.1,0,2-0.1,2.5-0.2c0.7-0.2,1.2-0.4,1.6-0.8c0.4-0.4,0.8-1,1.1-1.9c0.3-0.9,0.4-2.1,0.4-3.7c0-1.6-0.1-2.8-0.4-3.6
				c-0.3-0.8-0.7-1.5-1.2-2s-1.1-0.8-1.9-0.9c-0.6-0.1-1.7-0.2-3.3-0.2H542.2z" style="fill: rgb(255, 255, 255);"></path>
			<path class="st21" d="M566.4,962.9l3.9,0.6c-0.5,1.4-1.3,2.5-2.3,3.2c-1.1,0.7-2.4,1.1-4,1.1c-2.5,0-4.4-0.8-5.6-2.5
				c-1-1.3-1.4-3-1.4-5c0-2.4,0.6-4.3,1.9-5.7c1.3-1.4,2.9-2.1,4.8-2.1c2.2,0,3.9,0.7,5.1,2.2c1.3,1.4,1.9,3.6,1.8,6.6h-9.7
				c0,1.1,0.3,2,0.9,2.7c0.6,0.6,1.3,1,2.2,1c0.6,0,1.1-0.2,1.5-0.5C565.8,964.1,566.2,963.6,566.4,962.9z M566.6,959
				c0-1.1-0.3-2-0.9-2.6c-0.6-0.6-1.2-0.9-2-0.9c-0.8,0-1.5,0.3-2.1,0.9c-0.6,0.6-0.8,1.4-0.8,2.5H566.6z" style="fill: rgb(255, 255, 255);"></path>
			<path class="st21" d="M571.6,963.4l3.9-0.6c0.2,0.8,0.5,1.3,1,1.7c0.5,0.4,1.2,0.6,2.1,0.6c1,0,1.8-0.2,2.3-0.6
				c0.3-0.3,0.5-0.6,0.5-1c0-0.3-0.1-0.5-0.3-0.7c-0.2-0.2-0.6-0.4-1.3-0.5c-3.1-0.7-5.1-1.3-5.9-1.9c-1.2-0.8-1.7-1.9-1.7-3.3
				c0-1.3,0.5-2.3,1.5-3.2c1-0.9,2.6-1.3,4.7-1.3c2,0,3.5,0.3,4.5,1c1,0.7,1.6,1.6,2,2.9l-3.6,0.7c-0.2-0.6-0.5-1-0.9-1.3
				c-0.4-0.3-1.1-0.5-1.9-0.5c-1,0-1.7,0.1-2.2,0.4c-0.3,0.2-0.4,0.5-0.4,0.8c0,0.3,0.1,0.5,0.4,0.7c0.3,0.3,1.6,0.6,3.6,1.1
				c2.1,0.5,3.5,1,4.3,1.7c0.8,0.7,1.2,1.6,1.2,2.9c0,1.3-0.6,2.5-1.7,3.5c-1.1,1-2.8,1.4-5,1.4c-2,0-3.6-0.4-4.7-1.2
				C572.8,965.8,572,964.7,571.6,963.4z" style="fill: rgb(255, 255, 255);"></path>
			<path class="st21" d="M588.1,950.9v-3.6h3.9v3.6H588.1z M588.1,967.5v-14.6h3.9v14.6H588.1z" style="fill: rgb(255, 255, 255);"></path>
			<path class="st21" d="M595,968.5l4.4,0.5c0.1,0.5,0.2,0.9,0.5,1.1c0.4,0.3,0.9,0.4,1.7,0.4c1,0,1.8-0.2,2.3-0.5
				c0.3-0.2,0.6-0.5,0.8-1c0.1-0.3,0.2-0.9,0.2-1.8v-2.1c-1.2,1.6-2.6,2.4-4.4,2.4c-2,0-3.5-0.8-4.7-2.5c-0.9-1.3-1.3-2.9-1.3-4.9
				c0-2.4,0.6-4.3,1.8-5.6c1.2-1.3,2.6-1.9,4.4-1.9c1.8,0,3.3,0.8,4.5,2.4v-2.1h3.6V966c0,1.7-0.1,3-0.4,3.9s-0.7,1.5-1.2,2
				c-0.5,0.5-1.2,0.9-2.1,1.1c-0.9,0.3-1.9,0.4-3.3,0.4c-2.5,0-4.2-0.4-5.3-1.3c-1-0.8-1.6-1.9-1.6-3.2
				C595,968.8,595,968.7,595,968.5z M598.5,959.9c0,1.6,0.3,2.7,0.9,3.4c0.6,0.7,1.3,1.1,2.2,1.1c0.9,0,1.7-0.4,2.4-1.1
				c0.7-0.7,1-1.8,1-3.3c0-1.5-0.3-2.6-0.9-3.4c-0.6-0.7-1.4-1.1-2.4-1.1c-0.9,0-1.7,0.4-2.3,1.1
				C598.8,957.3,598.5,958.4,598.5,959.9z" style="fill: rgb(255, 255, 255);"></path>
			<path class="st21" d="M625.3,967.5h-3.9v-7.5c0-1.6-0.1-2.6-0.2-3.1c-0.2-0.5-0.4-0.8-0.8-1.1c-0.4-0.3-0.8-0.4-1.3-0.4
				c-0.7,0-1.3,0.2-1.8,0.6c-0.5,0.4-0.9,0.9-1.1,1.5c-0.2,0.6-0.3,1.7-0.3,3.4v6.6H612v-14.6h3.6v2.1c1.3-1.7,2.9-2.5,4.8-2.5
				c0.9,0,1.6,0.2,2.3,0.5c0.7,0.3,1.2,0.7,1.6,1.2c0.4,0.5,0.6,1,0.8,1.6c0.1,0.6,0.2,1.5,0.2,2.6V967.5z" style="fill: rgb(255, 255, 255);"></path>
			<path class="st21" d="M637.2,962.9l3.9,0.6c-0.5,1.4-1.3,2.5-2.3,3.2c-1.1,0.7-2.4,1.1-4,1.1c-2.5,0-4.4-0.8-5.6-2.5
				c-1-1.3-1.4-3-1.4-5c0-2.4,0.6-4.3,1.9-5.7c1.3-1.4,2.9-2.1,4.8-2.1c2.2,0,3.9,0.7,5.1,2.2c1.3,1.4,1.9,3.6,1.8,6.6h-9.7
				c0,1.1,0.3,2,0.9,2.7c0.6,0.6,1.3,1,2.2,1c0.6,0,1.1-0.2,1.5-0.5C636.6,964.1,636.9,963.6,637.2,962.9z M637.4,959
				c0-1.1-0.3-2-0.9-2.6c-0.6-0.6-1.2-0.9-2-0.9c-0.8,0-1.5,0.3-2.1,0.9c-0.6,0.6-0.8,1.4-0.8,2.5H637.4z" style="fill: rgb(255, 255, 255);"></path>
			<path class="st21" d="M657.2,967.5h-3.6v-2.1c-0.6,0.8-1.3,1.5-2.1,1.9c-0.8,0.4-1.6,0.6-2.5,0.6c-1.7,0-3.1-0.7-4.3-2
				c-1.2-1.4-1.8-3.2-1.8-5.7c0-2.5,0.6-4.4,1.7-5.7c1.2-1.3,2.6-1.9,4.4-1.9c1.6,0,3,0.7,4.2,2v-7.3h3.9V967.5z M646.9,959.9
				c0,1.6,0.2,2.7,0.6,3.4c0.6,1,1.5,1.5,2.6,1.5c0.9,0,1.6-0.4,2.3-1.1c0.6-0.8,0.9-1.9,0.9-3.4c0-1.7-0.3-2.9-0.9-3.6
				c-0.6-0.7-1.4-1.1-2.3-1.1c-0.9,0-1.7,0.4-2.3,1.1C647.2,957.4,646.9,958.5,646.9,959.9z" style="fill: rgb(255, 255, 255);"></path>
			<path class="st21" d="M667.6,967.5v-20.2h3.9v7.3c1.2-1.4,2.6-2,4.2-2c1.8,0,3.3,0.6,4.4,1.9c1.2,1.3,1.7,3.1,1.7,5.6
				c0,2.5-0.6,4.4-1.8,5.8c-1.2,1.3-2.6,2-4.3,2c-0.8,0-1.7-0.2-2.5-0.6c-0.8-0.4-1.5-1-2.1-1.9v2.1H667.6z M671.4,959.9
				c0,1.5,0.2,2.6,0.7,3.4c0.7,1,1.6,1.5,2.7,1.5c0.9,0,1.6-0.4,2.2-1.1c0.6-0.7,0.9-1.9,0.9-3.4c0-1.7-0.3-2.9-0.9-3.6
				c-0.6-0.7-1.4-1.1-2.3-1.1c-0.9,0-1.7,0.4-2.3,1.1C671.7,957.3,671.4,958.4,671.4,959.9z" style="fill: rgb(255, 255, 255);"></path>
			<path class="st21" d="M682.6,952.9h4.1l3.5,10.4l3.4-10.4h4l-5.2,14.1l-0.9,2.5c-0.3,0.9-0.7,1.5-1,2c-0.3,0.4-0.7,0.8-1.1,1.1
				c-0.4,0.3-0.9,0.5-1.5,0.7c-0.6,0.2-1.2,0.2-2,0.2c-0.7,0-1.5-0.1-2.2-0.2l-0.3-3c0.6,0.1,1.2,0.2,1.6,0.2c0.9,0,1.6-0.3,2-0.8
				c0.4-0.5,0.8-1.2,1-2L682.6,952.9z" style="fill: rgb(255, 255, 255);"></path>
		</g>
	</g>
</g>
          </g>

          <path id="foreground-overlay" style="fill: #ebeced; opacity: 0.96; pointer-events: none;" d="
        M -1000000, -1000000
        L 2000000, -1000000
        L 2000000, 2000000
        L -1000000, 2000000
        Z
        M 0, 0
        L 0, 980
        L 1400, 980
        L 1400, 0
        Z
      "></path>

          <g id="huds">
            <g is="ee-outlinehud" id="outline-hud"></g>
            <g is="ve-viewboxhud" id="view-box-hud" enabled=""></g>
            <g is="ee-transformhud" id="transform-hud" enabled="" style=""></g>
            <g is="ee-lineargradienthud" id="linear-gradient-hud" tabindex="-1"></g>
            <g is="ee-radialgradienthud" id="radial-gradient-hud" tabindex="-1"></g>
            <g is="ee-penseghud" id="pen-seg-hud"></g>
            <g is="ee-penhud" id="pen-hud" tabindex="-1"></g>
            <g is="ee-rubberbandhud" id="rubber-band-hud" enabled=""></g>
            <g is="ee-texthud" id="text-hud" tabindex="-1"></g>
          </g>
        </g>
      </svg>